<?xml version="1.0" encoding="utf-8"?>
<svg version="1.1" xmlns:xlink="http://www.w3.org/1999/xlink" width="53px" height="51px" xmlns="http://www.w3.org/2000/svg">
  <g transform="matrix(1 0 0 1 -334 -130 )">
    <path d="M 334 130  L 387 130  L 387 181  L 334 181  L 334 130  " fill-rule="nonzero" fill="#cccccc" stroke="none" />
    <path d="M 338 134  L 383 134  L 383 177  L 338 177  L 338 134  " fill-rule="nonzero" fill="#ffffff" stroke="none" />
    <path d="M 365.385 145.3  C 363.243 145.3  361.56 143.617  361.56 141.475  C 361.56 139.333  363.243 137.65  365.385 137.65  C 367.527 137.65  369.21 139.333  369.21 141.475  C 369.21 143.617  367.527 145.3  365.385 145.3  " fill-rule="nonzero" fill="#cccccc" stroke="none" />
    <path d="M 340 176  L 340 154  L 350.5 144  L 365.2 152.905660377358  L 373.6 150  L 382 152.905660377358  L 382 176  L 340 176  " fill-rule="nonzero" fill="#169bd5" stroke="none" />
  </g>
</svg>