<?xml version="1.0" standalone="no"?><!DOCTYPE svg PUBLIC "-//W3C//DTD SVG 1.1//EN" "http://www.w3.org/Graphics/SVG/1.1/DTD/svg11.dtd"><svg t="1551952181947" class="icon" style="" viewBox="0 0 1024 1024" version="1.1" xmlns="http://www.w3.org/2000/svg" p-id="4180" xmlns:xlink="http://www.w3.org/1999/xlink" width="200" height="200"><defs><style type="text/css"></style></defs><path d="M512 614.4c-6.826667 0-13.653333-3.413333-13.653333-10.24l-221.866667-409.6C273.066667 191.146667 273.066667 187.733333 273.066667 180.906667l34.133333-98.986667C331.093333 30.72 382.293333 0 436.906667 0h139.946666c54.613333 0 105.813333 30.72 129.706667 78.506667l40.96 102.4c3.413333 3.413333 3.413333 10.24 0 13.653333l-221.866667 409.6c0 6.826667-6.826667 10.24-13.653333 10.24zM307.2 184.32l204.8 375.466667 201.386667-375.466667-37.546667-92.16c-17.066667-34.133333-54.613333-58.026667-98.986667-58.026667h-139.946666c-40.96 0-81.92 23.893333-98.986667 61.44L307.2 184.32zM221.866667 426.666667c-6.826667 0-13.653333-3.413333-17.066667-10.24l-102.4-273.066667c-3.413333-10.24 0-17.066667 10.24-20.48 10.24-3.413333 17.066667 0 20.48 10.24l102.4 273.066667c3.413333 10.24 0 17.066667-10.24 20.48h-3.413333z" fill="#1296db" p-id="4181"></path><path d="M1006.933333 1024h-136.533333c-10.24 0-17.066667-6.826667-17.066667-13.653333l-34.133333-300.373334V955.733333c0 6.826667-3.413333 13.653333-10.24 13.653334-3.413333 3.413333-102.4 54.613333-296.96 54.613333s-293.546667-51.2-296.96-54.613333c-6.826667 0-10.24-6.826667-10.24-13.653334v-245.76l-34.133333 300.373334c0 6.826667-6.826667 13.653333-17.066667 13.653333h-136.533333c-3.413333 0-10.24-3.413333-13.653334-6.826667-3.413333-3.413333-3.413333-6.826667-3.413333-10.24l68.266667-819.2c3.413333-34.133333 23.893333-68.266667 58.026666-81.92l88.746667-44.373333c44.373333-17.066667 102.4-27.306667 143.36-27.306667 6.826667 0 13.653333 3.413333 17.066667 13.653334l136.533333 488.106666L651.946667 34.133333c3.413333-10.24 10.24-13.653333 20.48-13.653333 6.826667 3.413333 13.653333 6.826667 13.653333 13.653333 34.133333 3.413333 68.266667 13.653333 105.813333 27.306667L880.64 102.4c30.72 17.066667 54.613333 47.786667 58.026667 81.92l85.333333 819.2c0 3.413333 0 10.24-3.413333 13.653333-3.413333 3.413333-10.24 6.826667-13.653334 6.826667z m-122.88-34.133333h102.4L904.533333 191.146667c-3.413333-23.893333-17.066667-44.373333-37.546666-54.613334l-88.746667-44.373333c-34.133333-13.653333-64.853333-20.48-98.986667-23.893333l-150.186666 532.48c-3.413333 6.826667-10.24 13.653333-17.066667 13.653333s-13.653333-3.413333-17.066667-13.653333L344.746667 68.266667c-34.133333 3.413333-81.92 10.24-116.053334 23.893333L139.946667 133.12c-20.48 10.24-34.133333 34.133333-37.546667 54.613333L34.133333 989.866667h102.4l68.266667-583.68c0-10.24 6.826667-13.653333 17.066667-13.653334s17.066667 6.826667 17.066666 17.066667v535.893333c27.306667 10.24 119.466667 44.373333 273.066667 44.373334s245.76-34.133333 273.066667-44.373334V409.6c0-10.24 6.826667-17.066667 17.066666-17.066667s17.066667 6.826667 17.066667 13.653334L884.053333 989.866667z" fill="#1296db" p-id="4182"></path><path d="M460.8 1006.933333c-10.24 0-17.066667-10.24-17.066667-20.48l51.2-392.533333c0-10.24 10.24-17.066667 20.48-13.653333 10.24 0 17.066667 10.24 13.653334 20.48L477.866667 993.28c0 6.826667-10.24 13.653333-17.066667 13.653333zM802.133333 426.666667h-6.826666c-10.24-3.413333-13.653333-13.653333-10.24-23.893334l102.4-256c3.413333-10.24 13.653333-13.653333 20.48-10.24 10.24 3.413333 13.653333 13.653333 10.24 23.893334l-102.4 256c0 6.826667-6.826667 10.24-13.653334 10.24z" fill="#1296db" p-id="4183"></path><path d="M563.2 733.866667m-17.066667 0a17.066667 17.066667 0 1 0 34.133334 0 17.066667 17.066667 0 1 0-34.133334 0Z" fill="#1296db" p-id="4184"></path><path d="M529.066667 836.266667m-17.066667 0a17.066667 17.066667 0 1 0 34.133333 0 17.066667 17.066667 0 1 0-34.133333 0Z" fill="#1296db" p-id="4185"></path></svg>