<?xml version="1.0" standalone="no"?><!DOCTYPE svg PUBLIC "-//W3C//DTD SVG 1.1//EN" "http://www.w3.org/Graphics/SVG/1.1/DTD/svg11.dtd"><svg t="1551952200986" class="icon" style="" viewBox="0 0 1024 1024" version="1.1" xmlns="http://www.w3.org/2000/svg" p-id="5417" xmlns:xlink="http://www.w3.org/1999/xlink" width="200" height="200"><defs><style type="text/css"></style></defs><path d="M206.5 751.1h251.7v94.4H206.5z" fill="#66E3AA" p-id="5418"></path><path d="M410.2 883H254.4c-39.6 0-71.9-32.3-71.9-71.9V302.3c0-5.9 2.2-11.6 6.2-16l127-141.3c4.6-5.1 11-8 17.8-8 6.8 0 13.3 2.9 17.9 8L476 284.2c3.9 4.4 6.1 10.1 6.1 16v510.9c0 39.6-32.3 71.9-71.9 71.9zM230.5 311.5v499.6c0 13.2 10.7 23.9 23.9 23.9h155.8c13.2 0 23.9-10.7 23.9-23.9V309.4L333.5 196.9l-103 114.6zM847.7 883H580V147.9h267.7V883zM628 835h171.7V195.9H628V835z" fill="#0071BC" p-id="5419"></path><path d="M604 258.2h51.9v48H604zM604 352.2h81.8v48H604zM604 446.2h51.9v48H604zM604 540.2h81.8v48H604zM604 634.2h51.9v48H604zM604 728.2h81.8v48H604zM285.4 190.5h96.5v48h-96.5zM206.5 278.3h251.6v48H206.5z" fill="#0071BC" p-id="5420"></path><path d="M308.3 302.3h48v460.8h-48z" fill="#0071BC" p-id="5421"></path><path d="M201 727.1h257.1v48H201z" fill="#0071BC" p-id="5422"></path></svg>