<?xml version="1.0" encoding="utf-8"?>
<svg version="1.1" xmlns:xlink="http://www.w3.org/1999/xlink" width="91px" height="25px" xmlns="http://www.w3.org/2000/svg">
  <defs>
    <mask fill="white" id="clip14">
      <path d="M 0 25  L 0 0  L 52.0672180111651 0  L 53.6806633893175 0  L 91 0  L 91 25  L 0 25  Z " fill-rule="evenodd" />
    </mask>
  </defs>
  <g transform="matrix(1 0 0 1 -447 -247 )">
    <path d="M 0 25  L 0 0  L 52.0672180111651 0  L 53.6806633893175 0  L 91 0  L 91 25  L 0 25  Z " fill-rule="nonzero" fill="#ffffff" stroke="none" transform="matrix(1 0 0 1 447 247 )" />
    <path d="M 0 25  L 0 0  L 52.0672180111651 0  L 53.6806633893175 0  L 91 0  L 91 25  L 0 25  Z " stroke-width="2" stroke="#797979" fill="none" transform="matrix(1 0 0 1 447 247 )" mask="url(#clip14)" />
  </g>
</svg>