<?xml version="1.0" encoding="utf-8"?>
<svg version="1.1" xmlns:xlink="http://www.w3.org/1999/xlink" width="63px" height="20px" xmlns="http://www.w3.org/2000/svg">
  <defs>
    <mask fill="white" id="clip13">
      <path d="M 0 20  L 0 0  L 22.0036648161272 0  L 25.1801354043623 0  L 27.2977824631873 0  L 30.789907086797 0  L 36.8271942278927 0  L 63 0  L 63 20  L 0 20  Z " fill-rule="evenodd" />
    </mask>
  </defs>
  <g transform="matrix(1 0 0 1 -507 -13 )">
    <path d="M 0 20  L 0 0  L 22.0036648161272 0  L 25.1801354043623 0  L 27.2977824631873 0  L 30.789907086797 0  L 36.8271942278927 0  L 63 0  L 63 20  L 0 20  Z " fill-rule="nonzero" fill="#ffffff" stroke="none" transform="matrix(1 0 0 1 507 13 )" />
    <path d="M 0 20  L 0 0  L 22.0036648161272 0  L 25.1801354043623 0  L 27.2977824631873 0  L 30.789907086797 0  L 36.8271942278927 0  L 63 0  L 63 20  L 0 20  Z " stroke-width="2" stroke="#797979" fill="none" transform="matrix(1 0 0 1 507 13 )" mask="url(#clip13)" />
  </g>
</svg>